M48
;DRILL file {KiCad 4.0.7} date 
;FORMAT={-:-/ absolute / metric / decimal}
FMAT,2
METRIC,TZ
T1C0.991
T2C1.092
T3C3.048
T4C3.988
T5C6.375
%
G90
G05
M71
T1
X86.309Y-33.376
X86.309Y-38.379
T2
X184.785Y-45.085
X187.325Y-45.085
X189.865Y-45.085
T3
X65.324Y-147.346
X69.927Y-145.198
X75.414Y-168.985
X80.018Y-166.837
T4
X34.699Y-143.269
X42.748Y-160.533
X50.8Y-177.8
X51.512Y-153.786
X51.963Y-135.219
X60.015Y-152.484
X61.602Y-175.425
X64.038Y-161.117
X68.064Y-169.748
X72.39Y-65.1
X72.39Y-88.91
X72.39Y-117.485
X77.279Y-144.432
X81.303Y-153.065
X83.739Y-138.757
X85.331Y-161.699
X91.44Y-65.1
X91.44Y-84.148
X91.44Y-103.198
X91.44Y-122.248
X93.83Y-160.396
X110.49Y-63.828
X110.49Y-82.878
X110.49Y-101.928
X110.49Y-120.978
X110.49Y-140.028
X129.54Y-62.23
X129.54Y-81.28
X129.54Y-100.33
X129.54Y-119.38
X129.54Y-138.43
X148.59Y-63.828
X148.59Y-82.878
X148.59Y-101.928
X148.59Y-120.978
X148.59Y-140.028
X167.64Y-67.005
X167.64Y-86.053
X167.64Y-105.103
X167.64Y-124.153
X167.64Y-143.203
X186.69Y-143.203
T5
X53.899Y-165.837
X59.665Y-121.666
X67.412Y-37.135
X105.435Y-157.759
X118.212Y-37.135
X139.04Y-91.592
X201.143Y-37.135
X201.778Y-140.056
T4
X186.689Y-67.005G85X191.451Y-67.005
G05
X186.689Y-86.053G85X191.451Y-86.053
G05
X186.689Y-105.103G85X191.451Y-105.103
G05
X186.689Y-124.153G85X191.451Y-124.153
G05
T0
M30
