M48
;DRILL file {KiCad 4.0.7} date 
;FORMAT={-:-/ absolute / metric / decimal}
FMAT,2
METRIC,TZ
T1C0.762
T2C0.991
T3C1.090
T4C1.092
T5C1.420
T6C1.499
T7C1.702
%
G90
G05
M71
T1
X136.042Y-37.28
X136.843Y-36.081
X137.643Y-37.28
X138.443Y-36.081
X139.243Y-37.28
T2
X33.393Y-149.483
X34.466Y-151.785
X40.299Y-146.263
X41.372Y-148.565
X41.442Y-166.747
X42.516Y-169.049
X48.348Y-163.527
X49.422Y-165.829
X49.494Y-184.014
X50.567Y-186.316
X50.657Y-141.434
X51.731Y-143.736
X53.341Y-147.188
X56.4Y-180.794
X57.473Y-183.096
X57.563Y-138.213
X58.637Y-140.515
X60.247Y-143.967
X67.032Y-155.517
X68.58Y-70.18
X68.58Y-72.72
X69.334Y-154.444
X70.253Y-162.423
X70.606Y-139.136
X71.12Y-70.18
X72.555Y-161.35
X73.66Y-70.18
X76.2Y-70.18
X76.2Y-72.72
X77.47Y-85.1
X77.47Y-87.64
X77.47Y-90.18
X77.47Y-92.72
X77.47Y-113.675
X77.47Y-116.215
X77.47Y-118.755
X77.47Y-121.295
X77.512Y-135.916
X78.74Y-34.925
X78.74Y-37.465
X78.74Y-40.005
X80.01Y-85.1
X80.01Y-92.72
X80.01Y-113.675
X80.01Y-121.295
X84.297Y-147.466
X85.09Y-55.562
X86.599Y-146.392
X87.517Y-154.372
X87.63Y-70.18
X87.63Y-72.72
X87.63Y-89.228
X87.63Y-91.768
X87.63Y-108.278
X87.63Y-110.818
X87.63Y-127.328
X87.63Y-129.868
X89.819Y-153.298
X93.98Y-34.925
X93.98Y-37.465
X93.98Y-40.005
X95.25Y-70.18
X95.25Y-72.72
X95.25Y-89.228
X95.25Y-91.768
X95.25Y-108.278
X95.25Y-110.818
X95.25Y-127.328
X95.25Y-129.868
X98.643Y-38.
X101.818Y-36.73
X105.827Y-45.185
X106.68Y-68.908
X106.68Y-71.448
X106.68Y-87.958
X106.68Y-90.498
X106.68Y-107.008
X106.68Y-109.548
X106.68Y-126.058
X106.68Y-128.598
X106.68Y-145.108
X106.68Y-147.648
X109.002Y-43.915
X114.3Y-68.908
X114.3Y-71.448
X114.3Y-87.958
X114.3Y-90.498
X114.3Y-107.008
X114.3Y-109.548
X114.3Y-126.058
X114.3Y-128.598
X114.3Y-145.108
X114.3Y-147.648
X116.522Y-52.387
X120.332Y-46.99
X125.73Y-67.31
X125.73Y-69.85
X125.73Y-86.36
X125.73Y-88.9
X125.73Y-105.41
X125.73Y-107.95
X125.73Y-124.46
X125.73Y-127.
X125.73Y-143.51
X125.73Y-146.05
X130.493Y-46.99
X131.928Y-34.417
X133.35Y-67.31
X133.35Y-69.85
X133.35Y-86.36
X133.35Y-88.9
X133.35Y-105.41
X133.35Y-107.95
X133.35Y-124.46
X133.35Y-127.
X133.35Y-143.51
X133.35Y-146.05
X135.23Y-40.259
X137.643Y-40.259
X140.056Y-40.259
X143.358Y-34.417
X143.41Y-47.09
X144.78Y-68.908
X144.78Y-71.448
X144.78Y-87.958
X144.78Y-90.498
X144.78Y-107.008
X144.78Y-109.548
X144.78Y-126.058
X144.78Y-128.598
X144.78Y-145.108
X144.78Y-147.648
X145.315Y-48.995
X150.595Y-39.905
X152.4Y-68.908
X152.4Y-71.448
X152.4Y-87.958
X152.4Y-90.498
X152.4Y-107.008
X152.4Y-109.548
X152.4Y-126.058
X152.4Y-128.598
X152.4Y-145.108
X152.4Y-147.648
X152.5Y-41.81
X153.67Y-37.465
X160.655Y-150.812
X163.83Y-72.085
X163.83Y-74.625
X163.83Y-91.133
X163.83Y-93.673
X163.83Y-110.183
X163.83Y-112.723
X163.83Y-129.233
X163.83Y-131.773
X163.83Y-148.283
X163.83Y-150.823
X167.64Y-148.272
X171.45Y-72.085
X171.45Y-74.625
X171.45Y-91.133
X171.45Y-93.673
X171.45Y-110.183
X171.45Y-112.723
X171.45Y-129.233
X171.45Y-131.773
X171.45Y-148.283
X171.45Y-150.823
X174.308Y-53.975
X182.88Y-148.283
X182.88Y-150.823
X187.642Y-72.085
X187.642Y-74.625
X187.642Y-91.133
X187.642Y-93.673
X187.642Y-110.183
X187.642Y-112.723
X187.642Y-129.233
X187.642Y-131.773
X190.5Y-148.283
X190.5Y-150.823
X195.262Y-72.085
X195.262Y-74.625
X195.262Y-91.133
X195.262Y-93.673
X195.262Y-110.183
X195.262Y-112.723
X195.262Y-129.233
X195.262Y-131.773
T3
X189.865Y-34.925
T4
X82.702Y-38.379
X84.709Y-41.478
X87.909Y-41.478
X89.916Y-38.379
X161.925Y-34.925
X161.925Y-37.465
X161.925Y-45.085
X161.925Y-50.165
X164.465Y-34.925
X164.465Y-37.465
X164.465Y-45.085
X164.465Y-50.165
X167.005Y-34.925
X167.005Y-37.465
X167.005Y-45.085
X167.005Y-50.165
X169.545Y-34.925
X169.545Y-37.465
X169.545Y-45.085
X169.545Y-50.165
X172.085Y-34.925
X172.085Y-37.465
X172.085Y-45.085
X172.085Y-50.165
X174.625Y-34.925
X174.625Y-37.465
X174.625Y-45.085
X174.625Y-50.165
X177.165Y-34.925
X177.165Y-37.465
X177.165Y-45.085
X177.165Y-50.165
X179.705Y-34.925
X179.705Y-37.465
X179.705Y-45.085
X179.705Y-50.165
X182.245Y-34.925
X182.245Y-37.465
X182.245Y-45.085
X182.245Y-50.165
X184.785Y-34.925
X184.785Y-37.465
X184.785Y-50.165
X187.325Y-34.925
X187.325Y-37.465
X187.325Y-50.165
X189.865Y-37.465
X189.865Y-50.165
X192.405Y-37.465
X192.405Y-45.085
X194.945Y-37.465
X194.945Y-45.085
T5
X30.172Y-142.577
X30.25Y-139.738
X34.854Y-137.591
X37.079Y-139.357
X38.222Y-159.841
X38.299Y-157.002
X42.903Y-154.856
X45.128Y-156.621
X46.274Y-177.108
X46.351Y-174.269
X47.437Y-134.528
X47.514Y-131.689
X50.955Y-172.123
X52.118Y-129.542
X53.18Y-173.888
X54.343Y-131.307
X55.489Y-151.792
X55.566Y-148.953
X58.361Y-160.962
X60.126Y-158.738
X60.17Y-146.806
X60.508Y-165.566
X62.395Y-148.572
X63.347Y-165.644
X65.685Y-173.66
X67.31Y-86.37
X67.31Y-91.45
X67.31Y-114.945
X67.31Y-120.025
X67.909Y-175.426
X68.58Y-62.56
X69.85Y-60.02
X69.85Y-85.1
X69.85Y-92.72
X69.85Y-113.675
X69.85Y-121.295
X72.513Y-173.279
X72.591Y-170.44
X72.753Y-143.74
X72.831Y-140.901
X74.93Y-60.02
X75.625Y-152.91
X76.2Y-62.56
X77.391Y-150.686
X77.435Y-138.755
X77.772Y-157.514
X79.659Y-140.52
X80.611Y-157.592
X82.952Y-165.611
X85.176Y-167.376
X87.63Y-62.56
X87.63Y-81.608
X87.63Y-100.658
X87.63Y-119.708
X88.9Y-60.02
X88.9Y-79.068
X88.9Y-98.118
X88.9Y-117.168
X89.78Y-165.23
X89.858Y-162.391
X93.98Y-60.02
X93.98Y-79.068
X93.98Y-98.118
X93.98Y-117.168
X95.25Y-62.56
X95.25Y-81.608
X95.25Y-100.658
X95.25Y-119.708
X106.68Y-61.288
X106.68Y-80.338
X106.68Y-99.388
X106.68Y-118.438
X106.68Y-137.488
X107.95Y-58.748
X107.95Y-77.798
X107.95Y-96.848
X107.95Y-115.898
X107.95Y-134.948
X113.03Y-58.748
X113.03Y-77.798
X113.03Y-96.848
X113.03Y-115.898
X113.03Y-134.948
X114.3Y-61.288
X114.3Y-80.338
X114.3Y-99.388
X114.3Y-118.438
X114.3Y-137.488
X125.73Y-59.69
X125.73Y-78.74
X125.73Y-97.79
X125.73Y-116.84
X125.73Y-135.89
X127.Y-57.15
X127.Y-76.2
X127.Y-95.25
X127.Y-114.3
X127.Y-133.35
X132.08Y-57.15
X132.08Y-76.2
X132.08Y-95.25
X132.08Y-114.3
X132.08Y-133.35
X133.35Y-59.69
X133.35Y-78.74
X133.35Y-97.79
X133.35Y-116.84
X133.35Y-135.89
X144.78Y-61.288
X144.78Y-80.338
X144.78Y-99.388
X144.78Y-118.438
X144.78Y-137.488
X146.05Y-58.748
X146.05Y-77.798
X146.05Y-96.848
X146.05Y-115.898
X146.05Y-134.948
X151.13Y-58.748
X151.13Y-77.798
X151.13Y-96.848
X151.13Y-115.898
X151.13Y-134.948
X152.4Y-61.288
X152.4Y-80.338
X152.4Y-99.388
X152.4Y-118.438
X152.4Y-137.488
X163.83Y-64.465
X163.83Y-83.513
X163.83Y-102.563
X163.83Y-121.613
X163.83Y-140.663
X165.1Y-61.925
X165.1Y-80.973
X165.1Y-100.023
X165.1Y-119.073
X165.1Y-138.123
X170.18Y-61.925
X170.18Y-80.973
X170.18Y-100.023
X170.18Y-119.073
X170.18Y-138.123
X171.45Y-64.465
X171.45Y-83.513
X171.45Y-102.563
X171.45Y-121.613
X171.45Y-140.663
X182.88Y-140.663
X184.15Y-138.123
X187.642Y-64.465
X187.642Y-83.513
X187.642Y-102.563
X187.642Y-121.613
X188.912Y-61.925
X188.912Y-80.973
X188.912Y-100.023
X188.912Y-119.073
X189.23Y-138.123
X190.5Y-140.663
X193.992Y-61.925
X193.992Y-80.973
X193.992Y-100.023
X193.992Y-119.073
X195.262Y-64.465
X195.262Y-83.513
X195.262Y-102.563
X195.262Y-121.613
T6
X181.61Y-63.195
X181.61Y-69.545
X181.61Y-82.243
X181.61Y-88.593
X181.61Y-101.293
X181.61Y-107.643
X181.61Y-120.343
X181.61Y-126.693
X184.15Y-61.925
X184.15Y-70.815
X184.15Y-80.973
X184.15Y-89.863
X184.15Y-100.023
X184.15Y-108.913
X184.15Y-119.073
X184.15Y-127.963
T7
X30.095Y-145.416
X38.144Y-162.68
X39.303Y-141.122
X46.196Y-179.947
X47.352Y-158.386
X47.359Y-137.366
X55.404Y-175.653
X55.411Y-154.631
X56.567Y-133.073
X61.892Y-156.513
X63.46Y-171.895
X64.619Y-150.337
X66.185Y-165.721
X67.31Y-65.1
X72.39Y-83.83
X72.39Y-93.99
X72.39Y-112.405
X72.39Y-122.565
X72.668Y-167.601
X72.675Y-146.579
X77.47Y-65.1
X79.156Y-148.461
X80.727Y-163.846
X81.884Y-142.285
X83.45Y-157.67
X86.36Y-65.1
X86.36Y-84.148
X86.36Y-103.198
X86.36Y-122.248
X89.935Y-159.552
X96.52Y-65.1
X96.52Y-84.148
X96.52Y-103.198
X96.52Y-122.248
X105.41Y-63.828
X105.41Y-82.878
X105.41Y-101.928
X105.41Y-120.978
X105.41Y-140.028
X115.57Y-63.828
X115.57Y-82.878
X115.57Y-101.928
X115.57Y-120.978
X115.57Y-140.028
X124.46Y-62.23
X124.46Y-81.28
X124.46Y-100.33
X124.46Y-119.38
X124.46Y-138.43
X134.62Y-62.23
X134.62Y-81.28
X134.62Y-100.33
X134.62Y-119.38
X134.62Y-138.43
X143.51Y-63.828
X143.51Y-82.878
X143.51Y-101.928
X143.51Y-120.978
X143.51Y-140.028
X153.67Y-63.828
X153.67Y-82.878
X153.67Y-101.928
X153.67Y-120.978
X153.67Y-140.028
X162.56Y-67.005
X162.56Y-86.053
X162.56Y-105.103
X162.56Y-124.153
X162.56Y-143.203
X172.72Y-67.005
X172.72Y-86.053
X172.72Y-105.103
X172.72Y-124.153
X172.72Y-143.203
X181.61Y-143.203
X191.77Y-143.203
X196.532Y-67.005
X196.532Y-86.053
X196.532Y-105.103
X196.532Y-124.153
T1
X133.995Y-31.659G85X133.995Y-32.802
G05
X141.29Y-31.659G85X141.29Y-32.802
G05
T4
X81.813Y-33.376G85X81.509Y-33.376
G05
X91.11Y-33.376G85X90.805Y-33.376
G05
T0
M30
